<?xml version="1.0" standalone="no"?>
<!DOCTYPE svg PUBLIC "-//W3C//DTD SVG 20010904//EN"
 "http://www.w3.org/TR/2001/REC-SVG-20010904/DTD/svg10.dtd">
<svg version="1.0" xmlns="http://www.w3.org/2000/svg"
 width="249.000000pt" height="74.000000pt" viewBox="0 0 249.000000 74.000000"
 preserveAspectRatio="xMidYMid meet">

<g transform="translate(0.000000,74.000000) scale(0.100000,-0.100000)"
fill="#000000" stroke="none">
<path d="M484 584 c-4 -10 -18 -34 -31 -52 -14 -18 -22 -39 -19 -47 3 -10 0
-12 -11 -8 -12 5 -15 2 -10 -10 3 -9 3 -16 -1 -14 -5 1 -23 -16 -42 -38 -63
-74 -164 -168 -233 -217 -15 -11 -7 -13 50 -14 51 -1 88 -9 146 -31 42 -17 77
-27 77 -22 0 5 -7 12 -14 15 -8 3 -22 28 -32 56 -14 42 -14 59 -5 105 6 30 8
59 5 64 -3 5 -2 8 3 7 4 -2 10 1 13 6 11 21 99 106 109 106 19 0 12 -15 -19
-45 -31 -30 -60 -100 -60 -147 0 -42 36 -106 72 -128 52 -31 98 -34 183 -10
55 15 97 21 150 18 40 -2 72 -2 71 0 -2 1 -25 18 -52 37 -82 59 -212 195 -276
290 -73 109 -66 102 -74 79z"/>
<path d="M1086 505 c-8 -9 -18 -14 -22 -13 -4 2 -16 -10 -28 -25 -15 -20 -21
-45 -23 -88 -2 -79 11 -114 54 -140 32 -20 34 -24 19 -34 -22 -17 -20 -25 7
-25 12 0 55 -16 95 -35 76 -37 104 -39 122 -5 8 15 6 17 -11 13 -21 -6 -159
43 -159 57 0 4 13 10 29 13 118 24 135 227 24 285 -31 17 -89 15 -107 -3z m99
-25 c19 -36 20 -184 2 -220 -16 -32 -83 -38 -93 -8 -3 10 -10 15 -16 12 -7 -5
-9 -2 -6 7 3 8 3 46 -1 86 -4 39 -3 69 1 67 4 -3 8 5 8 18 0 66 76 94 105 38z"/>
<path d="M1860 470 c0 -5 0 -13 0 -17 0 -5 -15 -13 -33 -20 -17 -6 -26 -12
-19 -12 8 -1 12 -23 12 -75 0 -99 11 -126 50 -126 16 0 30 5 30 10 0 6 -6 10
-12 10 -10 0 -12 22 -8 92 6 106 3 148 -11 148 -5 0 -9 -4 -9 -10z"/>
<path d="M1920 450 c0 -5 5 -10 10 -10 6 0 10 5 10 10 0 6 -4 10 -10 10 -5 0
-10 -4 -10 -10z"/>
<path d="M1345 422 c-14 -10 -4 -177 12 -193 7 -7 22 -9 40 -4 21 6 23 9 11
12 -16 4 -18 17 -18 93 0 71 -3 89 -16 94 -19 7 -17 7 -29 -2z"/>
<path d="M1455 424 c-6 -2 -9 -35 -7 -79 3 -52 -1 -82 -9 -93 -8 -9 -9 -14 -4
-9 4 4 16 0 26 -9 10 -9 25 -14 35 -12 15 3 17 15 15 93 -3 104 -14 127 -56
109z"/>
<path d="M1623 414 c-31 -16 -50 -54 -37 -76 4 -7 3 -8 -4 -4 -16 9 -16 -28
-1 -57 31 -60 98 -75 142 -32 81 82 0 219 -100 169z m71 -36 c15 -77 0 -148
-33 -148 -10 0 -22 7 -25 16 -9 24 -7 120 3 148 14 34 47 24 55 -16z"/>
<path d="M2023 417 c-35 -19 -63 -63 -63 -96 0 -30 23 -78 45 -93 15 -11 83
-10 90 2 3 6 -2 10 -12 10 -36 0 -65 30 -61 61 3 16 2 29 -1 29 -13 0 -5 56 9
72 23 25 44 8 38 -31 -4 -30 -4 -30 16 -17 28 18 32 47 10 63 -22 16 -42 16
-71 0z"/>
<path d="M2192 414 c-31 -21 -28 -45 13 -94 41 -49 43 -63 13 -84 -22 -16 -22
-16 9 -16 31 0 73 31 73 53 0 19 -51 77 -62 71 -7 -4 -8 -2 -4 4 4 7 3 12 -2
12 -5 0 -12 11 -14 24 -4 18 1 27 16 34 21 10 21 11 1 11 -11 1 -31 -6 -43
-15z"/>
<path d="M2264 399 c0 -20 11 -25 20 -10 3 5 0 13 -7 19 -10 8 -13 6 -13 -9z"/>
</g>
</svg>
